<svg version="1" xmlns="http://www.w3.org/2000/svg" width="2666.667" height="2666.667" viewBox="0 0 2000.000000 2000.000000"><path d="M433.5 268c.4 1.3 57.8 148.4 127.6 326.8S688 920 688 921c0 1.1-26.8 78.9-59.6 173s-59.5 171.3-59.2 171.5c.2.3 50.6-15.1 111.9-34.1 61.3-18.9 112.6-34.7 114.1-35 2.4-.6 2.8-.3 3.7 3.2.6 2.2 23 86 49.9 186.4s71.8 267.9 99.8 372.2c27.9 104.4 51.1 189.8 51.4 189.8.3 0 45.5-167.7 100.5-372.8 54.9-205 100.3-374.2 100.8-376.1.8-2.9 1.2-3.3 3.5-2.7 1.5.3 52.8 16.1 114.1 35 61.3 19 111.7 34.4 111.9 34.1.3-.2-26.5-77.7-59.3-172.1-56.2-161.1-59.8-171.8-58.8-175.3.5-2 58-149.3 127.7-327.4 69.7-178.2 126.6-324 126.4-324.2-.2-.2-127.6 92.1-283.1 205.1C1128.2 584.5 1000.6 677 1000 677c-.6 0-126-90.8-278.8-201.8-152.7-111-280.1-203.6-283.1-205.7-4.9-3.6-5.3-3.7-4.6-1.5zm386.3 389.2C918.4 722.5 999.5 776 1000 776s82-53.8 181.1-119.5c99.2-65.7 180.4-119.3 180.6-119.1.2.2-24.9 87.4-55.8 193.9l-56.2 193.6 29.5 113.8c16.2 62.6 29.5 113.9 29.4 114-.1.1-36.4-11.1-80.6-24.8-44.3-13.7-81-24.9-81.6-24.9-.6 0-2.2 3.7-3.6 8.2-1.4 4.6-11.2 35.3-21.8 68.3-66.1 206.7-120 381.1-120 388 0 3-1.8 1.4-2.5-2.1-3.3-17.9-50.2-168.6-137.3-441.7-3.6-11.4-7.1-20.7-7.7-20.7-.5 0-37.2 11.2-81.5 24.9-44.2 13.7-80.5 24.9-80.6 24.8-.1-.1 13.2-51.4 29.4-114l29.5-113.8-55.8-192.2c-30.7-105.7-56-193.1-56.3-194.1-.4-1.4-.2-1.7.9-1.1.8.5 82.1 54.3 180.7 119.7z"/><path d="M820.6 918.9c3.2 2.9 178.2 119.4 179.4 119.4 1.2 0 176.3-116.5 179.5-119.4.5-.5-75.8-.9-179.5-.9-102.6 0-180 .4-179.4.9z"/></svg>