<svg version="1" 
    xmlns="http://www.w3.org/2000/svg" width="2666.667" height="2666.667" viewBox="0 0 2000.000000 2000.000000">
    <path d="M0 1000v1000h2000V0H0v1000zm734.5-536C879.9 574.5 999.4 665 1000 665c.6 0 120.2-90.5 265.6-201.1 145.5-110.6 264.7-200.9 264.9-200.8.1.2-53.2 143.5-118.6 318.4-65.5 174.9-119.2 319.3-119.5 321-.3 2.2 14.9 49.1 55.4 171 30.8 92.4 55.8 168.1 55.7 168.2 0 .1-48.2-15.3-106.9-34.3-58.7-19-106.9-34.4-107.1-34.2-.2.1-42.8 166-94.7 368.5-51.8 202.6-94.5 368.3-94.8 368.3-.3 0-20.4-77.7-44.8-172.8-126.3-493-144.4-563.7-144.7-564-.2-.2-48.4 15.2-107.1 34.2-58.7 19-106.9 34.4-107.1 34.3-.1-.2 24.9-75.9 55.8-168.3 32.7-98.2 55.8-168.9 55.6-170.4-.2-1.4-52.7-142.5-116.6-313.5C455.4 226.6 468.9 263 469.6 263c.3 0 119.5 90.4 264.9 201z"/>
    <path d="M648 508.9c0 .5 24.6 89.4 54.6 197.6l54.5 196.7-28.6 115.5c-15.8 63.5-28.4 115.7-28.2 115.9.2.3 35.7-11 78.8-24.9 43.1-14 78.6-25.3 78.9-25.1.3.1 32.3 107.1 71 237.8 38.8 130.7 70.7 237.6 71 237.6.3 0 32.2-106.9 71-237.6 38.7-130.6 70.7-237.7 71-237.8.3-.2 35.8 11.1 78.9 25.1 43.1 13.9 78.6 25.2 78.8 24.9.3-.2-12.4-52.4-28.2-115.9l-28.6-115.5 54.6-196.8c30-108.2 54.4-197.1 54.3-197.5-.2-.4-79.4 54.1-176.1 121.2l-175.7 122-173.3-120.2c-95.2-66.1-174.4-121.1-175.9-122.1-1.6-1.1-2.8-1.5-2.8-.9zm519 393.5c-2.7 2.6-166 116.6-167 116.6S835.7 905 833 902.4c-1.2-1.2 22.4-1.4 167-1.4 144.5 0 168.2.2 167 1.4z"/>
</svg>